<html>
<head>
<meta charset="UTF-8">
<meta name="viewport" content="width=device-width, initial-scale=1.0"/>

<style>
.comment
{
    padding-left: 20px;
    margin-top: 4px;
    margin-right: 4px;
    margin-bottom: 4px;
    border: 2px #000 solid;
}
.submission
{
    border: 4px #00f solid;
    padding-left: 20px;
}
.hidden
{
    display: none;
}
</style>
</head>
<body><div class="submission" id="t3_6mid3w">
    <p class="userinfo">
        <a href="https://www.reddit.com/u/V2atX">V2atX</a>
        <span class="score"> | 31 points</span>
        <span class="timestamp"> | Jul 10 2017 23:33:45</span>
    </p>
    <strong>[TV] Supergirl S01 [1080p] BluRay FLAC [x264] [30.78GB]</strong>
    <p><p><a href="http://www.imdb.com/title/tt4016454/">Supergirl</a></p>
<p>Video: AVC H.264 @ 3123 - 4033 kb/s (3622 kb/s average) (CRF20, Film Preset, Ultralight Denoise)<br>
Audio: FLAC 5.1 @ 1359 - 1483 kb/s (1413 kb/s average) (lossless from DTS-HD MA source)<br>
Subs: UTF-8, non HI</p>
<p>Episodes are in DVD/BluRay order, which means that episodes 4 and 5 are switched compared to the broadcast order.<br>
This is the correct order to watch this show.</p>
<p>Links protected by captcha: http://links.snahp.it/834KerahS01</p>
<p>Mirror on 1fichier included! Register a free account for faster downloading.<br>
I suggest using <a href="https://board.jdownloader.org/showthread.php?t=54725">JDownloader 2 for easier downloading.</a> (Copy + paste the link inside, as the redirect is broken.)</p>
<p>Complete MediaInfo of a relatively average sized episode:</p>
<pre><code>General
Unique ID                                : 237992147845851126880223840701630547258 (0xB30B9ED2F675DC6783E4F7EC5876853A)
Complete name                            : Supergirl - S01E05 - Livewire.mkv
Format                                   : Matroska
Format version                           : Version 4 / Version 2
File size                                : 1.55 GiB
Duration                                 : 43 min 46 s
Overall bit rate mode                    : Variable
Overall bit rate                         : 5 066 kb/s
Encoded date                             : UTC 2017-07-08 02:21:55
Writing application                      : mkvmerge v10.0.0 ('To Drown In You') 64bit
Writing library                          : libebml v1.3.4 + libmatroska v1.4.5

Video
ID                                       : 1
Format                                   : AVC
Format/Info                              : Advanced Video Codec
Format profile                           : High@L4.1
Format settings, CABAC                   : Yes
Format settings, RefFrames               : 4 frames
Codec ID                                 : V_MPEG4/ISO/AVC
Duration                                 : 43 min 46 s
Bit rate                                 : 3 692 kb/s
Width                                    : 1 920 pixels
Height                                   : 1 080 pixels
Display aspect ratio                     : 16:9
Frame rate mode                          : Variable
Frame rate                               : 23.976 FPS
Color space                              : YUV
Chroma subsampling                       : 4:2:0
Bit depth                                : 8 bits
Scan type                                : Progressive
Bits/(Pixel*Frame)                       : 0.074
Stream size                              : 1.13 GiB (73%)
Writing library                          : x264 core 142 r2479 dd79a61
Encoding settings                        : cabac=1 / ref=4 / deblock=1:0:0 / analyse=0x3:0x133 / me=umh / subme=10 / psy=1 / psy_rd=1.00:0.00 / mixed_ref=1 / me_range=24 / chroma_me=1 / trellis=2 / 8x8dct=1 / cqm=0 / deadzone=21,11 / fast_pskip=1 / chroma_qp_offset=-2 / threads=12 / lookahead_threads=2 / sliced_threads=0 / nr=0 / decimate=1 / interlaced=0 / bluray_compat=0 / constrained_intra=0 / bframes=8 / b_pyramid=2 / b_adapt=2 / b_bias=0 / direct=3 / weightb=1 / open_gop=0 / weightp=2 / keyint=240 / keyint_min=24 / scenecut=40 / intra_refresh=0 / rc_lookahead=60 / rc=crf / mbtree=1 / crf=20.0 / qcomp=0.60 / qpmin=0 / qpmax=69 / qpstep=4 / vbv_maxrate=62500 / vbv_bufsize=78125 / crf_max=0.0 / nal_hrd=none / filler=0 / ip_ratio=1.40 / aq=1:1.00
Default                                  : Yes
Forced                                   : No
Color range                              : Limited
Color primaries                          : BT.709
Transfer characteristics                 : BT.709
Matrix coefficients                      : BT.709

Audio
ID                                       : 2
Format                                   : FLAC
Format/Info                              : Free Lossless Audio Codec
Codec ID                                 : A_FLAC
Duration                                 : 43 min 46 s
Bit rate mode                            : Variable
Bit rate                                 : 1 372 kb/s
Channel(s)                               : 6 channels
Channel positions                        : Front: L C R, Side: L R, LFE
Sampling rate                            : 48.0 kHz
Frame rate                               : 11.719 FPS (4096 SPF)
Bit depth                                : 16 bits
Delay relative to video                  : -100 ms
Stream size                              : 430 MiB (27%)
Writing library                          : libFLAC 1.2.1 (UTC 2007-09-17)
Language                                 : English
Default                                  : Yes
Forced                                   : No

Text
ID                                       : 3
Format                                   : UTF-8
Codec ID                                 : S_TEXT/UTF8
Codec ID/Info                            : UTF-8 Plain Text
Duration                                 : 43 min 41 s
Bit rate                                 : 79 b/s
Count of elements                        : 789
Stream size                              : 25.3 KiB (0%)
Language                                 : English
Default                                  : Yes
Forced                                   : No

Menu
00:00:00.000                             : :Chapter 1
00:01:02.179                             : :Chapter 2
00:11:47.157                             : :Chapter 3
00:16:29.772                             : :Chapter 4
00:25:59.341                             : :Chapter 5
00:33:14.109                             : :Chapter 6
00:43:18.713                             : :Chapter 7
</code></pre></p>
    <p class="toolbar">
        <a href="https://www.reddit.com/r/megalinks/comments/6mid3w">permalink</a>
    </p>
</div>
<div class="comment" id="t1_dk2agx7">
    <p class="userinfo">
        <a
        class="toggle_hide_button"
        href="javascript:void(0)"
        onclick="toggle_collapse(this.parentElement.parentElement)">[-]
        </a>
        <a href="https://www.reddit.com/u/SkrilleZ0">SkrilleZ0</a>
        <span class="score"> | 2 points</span>
        <span class="timestamp"> | Jul 11 2017 07:22:07</span>
    </p>
    <div class="collapsible">
        <p>thanx alot :)</p>
        <p class="toolbar">
            <a href="https://www.reddit.com/r/megalinks/comments/6mid3w/_/dk2agx7">permalink</a>
        </p>
        
    </div>
</div>

<div class="comment" id="t1_dkaulq7">
    <p class="userinfo">
        <a
        class="toggle_hide_button"
        href="javascript:void(0)"
        onclick="toggle_collapse(this.parentElement.parentElement)">[-]
        </a>
        <a href="https://www.reddit.com/u/OkayDragon">OkayDragon</a>
        <span class="score"> | 1 points</span>
        <span class="timestamp"> | Jul 16 2017 18:58:34</span>
    </p>
    <div class="collapsible">
        <p>Will you have Season 2?</p>
        <p class="toolbar">
            <a href="https://www.reddit.com/r/megalinks/comments/6mid3w/_/dkaulq7">permalink</a>
        </p>
        <div class="comment" id="t1_dkauxva">
    <p class="userinfo">
        <a
        class="toggle_hide_button"
        href="javascript:void(0)"
        onclick="toggle_collapse(this.parentElement.parentElement)">[-]
        </a>
        <a href="https://www.reddit.com/u/V2atX">V2atX</a>
        <span class="score"> | 1 points</span>
        <span class="timestamp"> | Jul 16 2017 19:05:51</span>
    </p>
    <div class="collapsible">
        <p>Only after the BluRay released.<br>
If you are looking for it now, try the weekly request thread.</p>
        <p class="toolbar">
            <a href="https://www.reddit.com/r/megalinks/comments/6mid3w/_/dkauxva">permalink</a>
        </p>
        
    </div>
</div>
    </div>
</div>
</body>

<script>
function toggle_collapse(comment_div)
{
    var button = comment_div.getElementsByClassName("toggle_hide_button")[0];
    var collapsible = comment_div.getElementsByClassName("collapsible")[0];
    if (collapsible.classList.contains("hidden"))
    {
        collapsible.classList.remove("hidden");
        button.innerText = "[-]";
    }
    else
    {
        collapsible.classList.add("hidden");
        button.innerText = "[+]";
    }
}
</script>
</html>
